<?xml version="1.0" encoding="utf-8"?>
<!-- Generator: Adobe Illustrator 16.0.3, SVG Export Plug-In . SVG Version: 6.00 Build 0)  -->
<!DOCTYPE svg PUBLIC "-//W3C//DTD SVG 1.1//EN" "http://www.w3.org/Graphics/SVG/1.1/DTD/svg11.dtd">
<svg version="1.1" id="Layer_1" xmlns="http://www.w3.org/2000/svg" xmlns:xlink="http://www.w3.org/1999/xlink" x="0px" y="0px"
	 width="48px" height="48px" viewBox="0 0 48 48" enable-background="new 0 0 48 48" xml:space="preserve">
<g>
	<path fill="#181C32" d="M43.598,10.793L25.639,0.424c-0.508-0.292-1.074-0.439-1.64-0.439c-0.565,0-1.131,0.146-1.638,0.439
		L4.402,10.793c-1.014,0.586-1.638,1.667-1.638,2.838v20.738c0,1.17,0.625,2.253,1.638,2.838l17.959,10.368
		c0.507,0.293,1.073,0.439,1.638,0.439c0.566,0,1.132-0.146,1.64-0.439l17.959-10.368c1.014-0.586,1.639-1.668,1.639-2.838V13.631
		C45.236,12.46,44.611,11.379,43.598,10.793z M37.399,15.228L26.047,26.58v11.391c0,1.13-0.917,2.047-2.047,2.047
		s-2.047-0.917-2.047-2.047V26.58L10.601,15.228c-0.8-0.799-0.8-2.096,0-2.896c0.799-0.8,2.095-0.799,2.895,0l8.482,8.482L24,22.836
		l2.023-2.021l8.481-8.482c0.8-0.8,2.096-0.8,2.896,0C38.199,13.132,38.199,14.428,37.399,15.228z"/>
</g>
</svg>
