<?xml version="1.0" encoding="utf-8"?>
<!-- Generator: Adobe Illustrator 16.0.3, SVG Export Plug-In . SVG Version: 6.00 Build 0)  -->
<!DOCTYPE svg PUBLIC "-//W3C//DTD SVG 1.1//EN" "http://www.w3.org/Graphics/SVG/1.1/DTD/svg11.dtd">
<svg version="1.1" id="Layer_1" xmlns="http://www.w3.org/2000/svg" xmlns:xlink="http://www.w3.org/1999/xlink" x="0px" y="0px"
	 width="180px" height="56px" viewBox="0 0 180 56" enable-background="new 0 0 180 56" xml:space="preserve">
<g>
	<g>
		<path fill="#FFFFFF" d="M80.815,32.312h-14.53v14.89h-9.01V9.824h25.004v6.957H66.285v8.601h14.53V32.312z"/>
		<path fill="#FFFFFF" d="M95.037,40.271h15.686v6.931H86.027V9.824h9.01V40.271z"/>
		<path fill="#FFFFFF" d="M143.222,9.824V34.29c0,2.772-0.59,5.172-1.771,7.2c-1.181,2.029-2.875,3.573-5.083,4.635
			c-2.207,1.061-4.818,1.59-7.83,1.59c-4.553,0-8.138-1.18-10.756-3.541c-2.618-2.362-3.953-5.598-4.005-9.705V9.824h9.063v24.825
			c0.103,4.09,2.002,6.136,5.698,6.136c1.865,0,3.277-0.514,4.236-1.54c0.958-1.027,1.438-2.696,1.438-5.007V9.824H143.222z"/>
		<path fill="#FFFFFF" d="M162.785,22.249l6.108-12.424h10.295L168.74,28.359l10.73,18.842h-10.397l-6.288-12.656l-6.29,12.656
			h-10.372l10.706-18.842L146.405,9.824h10.269L162.785,22.249z"/>
	</g>
	<g>
		<path fill="#FFFFFF" d="M41.644,16.985c-0.691-1.6-1.602-2.831-3.144-3.711c-4.368-2.492-8.603-5.03-12.958-7.544
			c-1.471-0.85-3.018-1.026-4.679-0.902c-1.504,0.113-2.746,0.804-4.014,1.545c-4.042,2.361-8.099,4.672-12.136,7.04
			c-2.288,1.342-3.876,3.423-4.27,6.013C0.43,19.516,0,19.604,0,19.692c0,5.42,0,10.838,0,16.257c0,0.457,0.528,0.924,0.663,1.369
			c0.661,2.168,2.074,3.893,4.085,5.041c4.344,2.48,8.74,5.041,13.104,7.486c2.523,1.414,5.232,1.436,7.759,0.02
			c4.504-2.523,8.995-5.117,13.433-7.752c2.193-1.301,2.921-3.363,3.305-5.861c0.012-0.076-0.35-0.148-0.35-0.223
			c0-5.473,0-10.944,0-16.417C42,18.734,42.003,17.819,41.644,16.985z M34.246,22.213L23,28.418v13.094
			c0,1.006,0.184,2.821-0.822,2.821h-0.355c-1.006,0-2.822-1.815-2.822-2.821V28.418L8.754,22.213
			c-0.872-0.503-0.92-1.618-0.417-2.489c0.503-0.872,1.743-1.17,2.614-0.667l10.987,6.307l10.956-6.307
			c0.871-0.503,1.751-0.205,2.254,0.667C35.65,20.595,35.118,21.71,34.246,22.213z"/>
	</g>
</g>
</svg>
